<svg width="50" height="51" viewBox="0 0 50 51" fill="none" xmlns="http://www.w3.org/2000/svg">
<rect x="0.5" y="0.5" width="49" height="49.2222" rx="14.5" stroke="white" stroke-opacity="0.7"/>
<path d="M34 25.3524V33.1468C34 33.7016 33.5523 34.1513 33 34.1513H29C28.4477 34.1513 28 33.7016 28 33.1468V27.6224C28 27.345 27.7761 27.1202 27.5 27.1202H22.5C22.2239 27.1202 22 27.345 22 27.6224V33.1468C22 33.7016 21.5523 34.1513 21 34.1513H17C16.4477 34.1513 16 33.7016 16 33.1468V25.3524C16.0007 24.5534 16.3172 23.7875 16.88 23.2229L23.71 16.3626C23.8963 16.177 24.1477 16.0724 24.41 16.0713H25.59C25.8523 16.0724 26.1037 16.177 26.29 16.3626L33.12 23.2229C33.6828 23.7875 33.9993 24.5534 34 25.3524Z" fill="white" fill-opacity="0.7"/>
</svg>
