<svg width="50" height="51" viewBox="0 0 50 51" fill="none" xmlns="http://www.w3.org/2000/svg">
<rect x="0.5" y="0.5" width="49" height="49.2222" rx="14.5" stroke="white" stroke-opacity="0.7"/>
<path d="M25 20.13L25.97 22.42L26.44 23.53L27.64 23.63L30.11 23.84L28.23 25.47L27.32 26.26L27.59 27.44L28.15 29.85L26.03 28.57L25 27.93L23.97 28.55L21.85 29.83L22.41 27.42L22.68 26.24L21.77 25.45L19.89 23.82L22.36 23.61L23.56 23.51L24.03 22.4L25 20.13ZM25 15L22.19 21.63L15 22.24L20.46 26.97L18.82 34L25 30.27L31.18 34L29.54 26.97L35 22.24L27.81 21.63L25 15Z" fill="white" fill-opacity="0.7"/>
</svg>
